<svg xmlns="http://www.w3.org/2000/svg" width="24" height="24" viewBox="0 0 24 24">
  <g id="Grupo_38014" data-name="Grupo 38014" transform="translate(672 -2929)">
    <rect id="Rectángulo_13632" data-name="Rectángulo 13632" width="24" height="24" transform="translate(-672 2929)" fill="none"/>
    <g id="icono-wifi-ppal" transform="translate(-672 2932)">
      <path id="Trazado_41628" data-name="Trazado 41628" d="M159.624,648.456a1.01,1.01,0,0,1-.657-.245,10,10,0,0,0-13.139,0,1,1,0,0,1-1.447-.137,1.087,1.087,0,0,1,.132-1.495,12.011,12.011,0,0,1,15.768,0,1.085,1.085,0,0,1,.133,1.494,1.017,1.017,0,0,1-.791.383" transform="translate(-140.345 -638.5)" fill="#187385"/>
      <path id="Trazado_41629" data-name="Trazado 41629" d="M141.6,644.992a1.05,1.05,0,0,1-1.038-1.06,1.074,1.074,0,0,1,.352-.8,17.367,17.367,0,0,1,23.316,0,1.079,1.079,0,0,1,.057,1.5,1.02,1.02,0,0,1-1.428.093,15.327,15.327,0,0,0-20.573,0,1.021,1.021,0,0,1-.685.265" transform="translate(-140.563 -638.641)" fill="#187385"/>
      <path id="Trazado_41630" data-name="Trazado 41630" d="M156.109,651.927a1.061,1.061,0,0,1-.613-.2,5.312,5.312,0,0,0-6.145,0,1.061,1.061,0,0,1-1.268-1.7c.013-.011.025-.019.039-.029a7.432,7.432,0,0,1,8.6,0,1.061,1.061,0,0,1-.615,1.926" transform="translate(-140.408 -638.325)" fill="#187385"/>
      <path id="Trazado_41631" data-name="Trazado 41631" d="M152.215,655.749a1.061,1.061,0,0,1-.011-2.122h.011a1.061,1.061,0,0,1,0,2.122" transform="translate(-140.195 -638.134)" fill="#187385"/>
    </g>
  </g>
</svg>
