<svg xmlns="http://www.w3.org/2000/svg" width="81.5" height="69.722" viewBox="0 0 81.5 69.722">
  <g id="Grupo_38111" data-name="Grupo 38111" transform="translate(-103 -219)">
    <ellipse id="Elipse_10603" data-name="Elipse 10603" cx="32.014" cy="2.183" rx="32.014" ry="2.183" transform="translate(103 284.356)" fill="#949494"/>
    <g id="Grupo_37897" data-name="Grupo 37897" transform="translate(108.93 249.684) rotate(-30)">
      <path id="Uni贸n_4" data-name="Uni贸n 4" d="M0,5.963A3.289,3.289,0,0,1,6.236,4.5l4.418-.107L15.143,0H25.748V2.873H16.307L11.844,7.238l-5.58.127A3.289,3.289,0,0,1,0,5.963Zm1.909,0a1.38,1.38,0,1,0,1.38-1.378A1.382,1.382,0,0,0,1.909,5.963Z" transform="translate(32.096 10.778)" fill="#187385"/>
      <path id="Uni贸n_5" data-name="Uni贸n 5" d="M19.519,9.252,15.04,4.857l-8.8-.117a3.289,3.289,0,1,1,.018-2.866l9.959.14,4.473,4.375H26.94V9.252ZM1.909,3.289a1.38,1.38,0,1,0,1.38-1.382A1.375,1.375,0,0,0,1.909,3.289Z" transform="translate(32.096 23.176)" fill="#187385"/>
      <path id="Trazado_41610" data-name="Trazado 41610" d="M15.488,19.523a14.915,14.915,0,0,1-2.978.845,17.185,17.185,0,0,1-3.094.307,8.706,8.706,0,0,1-6.995-2.825A11.33,11.33,0,0,1,0,10.223,11.477,11.477,0,0,1,2.248,2.767,7.6,7.6,0,0,1,8.493,0a7.475,7.475,0,0,1,6.034,2.594q2.191,2.594,2.191,7.244a13.953,13.953,0,0,1-.115,1.806H4.227a6.424,6.424,0,0,0,1.5,4.227,5.43,5.43,0,0,0,4.189,1.5,13.789,13.789,0,0,0,2.844-.307,13.088,13.088,0,0,0,2.729-.884ZM12.721,8.916V8.647a6.916,6.916,0,0,0-1.057-4A3.516,3.516,0,0,0,8.57,3.113,3.428,3.428,0,0,0,5.323,4.862a9.109,9.109,0,0,0-1.1,4.055Z" transform="translate(9.991 12.086)" fill="#e03224"/>
      <path id="Trazado_38405_-_Contorno" data-name="Trazado 38405 - Contorno" d="M9.441,2.864A6.584,6.584,0,0,0,2.864,9.441V35.4a6.584,6.584,0,0,0,6.577,6.577H51.927A6.584,6.584,0,0,0,58.5,35.4V14.967L46.142,2.864H9.441M9.441,0H47.31L61.369,13.763V35.4a9.441,9.441,0,0,1-9.441,9.441H9.441A9.441,9.441,0,0,1,0,35.4V9.441A9.441,9.441,0,0,1,9.441,0Z" transform="translate(0 0)" fill="#187385"/>
    </g>
  </g>
</svg>
