<svg xmlns="http://www.w3.org/2000/svg" width="24" height="24" viewBox="0 0 24 24">
  <g id="Grupo_38021" data-name="Grupo 38021" transform="translate(734 -1012)">
    <g id="icono-phone-ppal" transform="translate(-730 1013)">
      <path id="Trazado_28310" data-name="Trazado 28310" d="M632.016,463.9h-10a3,3,0,0,1-3-3v-16a3,3,0,0,1,3-3h10a3,3,0,0,1,3,3v16a3,3,0,0,1-3,3m-10-20a1,1,0,0,0-1,1v16a1,1,0,0,0,1,1h10a1,1,0,0,0,1-1v-16a1,1,0,0,0-1-1Z" transform="translate(-619.016 -441.9)" fill="#187385"/>
      <path id="Trazado_28311" data-name="Trazado 28311" d="M627.025,459.9a1,1,0,0,1-.011-2h.011a1,1,0,0,1,0,2" transform="translate(-619.016 -441.9)" fill="#187385"/>
    </g>
    <rect id="Rectángulo_13636" data-name="Rectángulo 13636" width="24" height="24" transform="translate(-734 1012)" fill="none"/>
  </g>
</svg>
