<svg id="icono-search-ppal" xmlns="http://www.w3.org/2000/svg" width="20" height="20" viewBox="0 0 20 20">
  <path id="Trazado_28263" data-name="Trazado 28263" d="M197.016,514.007a9,9,0,1,1,9-9,9,9,0,0,1-9,9m0-16a7,7,0,1,0,7,7,7,7,0,0,0-7-7" transform="translate(-188.016 -496.007)" fill="#187385"/>
  <path id="Trazado_28264" data-name="Trazado 28264" d="M207.016,516.007a1,1,0,0,1-.707-.293l-4.35-4.351a1,1,0,0,1,1.39-1.439l.024.025,4.35,4.351a1,1,0,0,1-.707,1.707" transform="translate(-188.016 -496.007)" fill="#187385"/>
</svg>
