<svg xmlns="http://www.w3.org/2000/svg" width="91.141" height="35.995" viewBox="0 0 91.141 35.995">
  <g id="Grupo_18321" data-name="Grupo 18321" transform="translate(155 -385.201)">
    <g id="Grupo_18319" data-name="Grupo 18319" transform="translate(-97.381 385.201)">
      <rect id="raya_3" data-name="raya 3" width="12.38" height="3.756" transform="translate(21.143 23.226)" fill="#e03224"/>
      <path id="raya_2" data-name="raya 2" d="M109.283,25.785,99.726,35.61l2.512,2.588,9.558-9.825Z" transform="translate(-84.463 -19.008)" fill="#e03224"/>
      <path id="raya_1" data-name="raya 1" d="M9.484,0,0,9.238l2.493,2.433,9.484-9.238Z" transform="translate(0 8.469) rotate(-45)" fill="#e03224"/>
    </g>
    <path id="o" d="M101.139,31.5a8.263,8.263,0,0,0-6.127,2.592,8.531,8.531,0,0,0-2.577,6.266,8.364,8.364,0,0,0,2.577,6.219,8.263,8.263,0,0,0,6.127,2.624,8.82,8.82,0,0,0,8.751-8.843,8.673,8.673,0,0,0-2.543-6.266,8.488,8.488,0,0,0-6.212-2.592M104.4,43.626a4.535,4.535,0,0,1-6.415.077l-.077-.077a4.626,4.626,0,0,1-1.375-3.275,4.51,4.51,0,0,1,1.375-3.314,4.065,4.065,0,0,1,3.222-1.33,4.26,4.26,0,0,1,3.305,1.33,4.682,4.682,0,0,1-.036,6.593" transform="translate(-190.074 371.998)" fill="#e03224"/>
    <path id="r" d="M96.287,31.593l-1.626.445a6.72,6.72,0,0,0-2.988,2.375V32.276L87.68,32.24V49.051h4.157V41.023a6.017,6.017,0,0,1,.526-2.952,3.971,3.971,0,0,1,1.449-1.613,4.035,4.035,0,0,1,2.3-.732l1.285.081-.036-4.282Z" transform="translate(-195.435 372.03)" fill="#e03224"/>
    <path id="a" d="M91.931,32.577a9.8,9.8,0,0,0-4.876-1.1c-2.826-.045-4.8.724-5.931,2.226a6.7,6.7,0,0,0-1.213,3.678h4.2a2.766,2.766,0,0,1,.607-1.541,2.482,2.482,0,0,1,2.218-.8,3.611,3.611,0,0,1,2.056.409,1.51,1.51,0,0,1,.724,1.411,1.4,1.4,0,0,1-.968,1.294l-3.233.526a10.153,10.153,0,0,0-3.627,1.1,4.76,4.76,0,0,0-2.3,4.571A4.5,4.5,0,0,0,81,47.94a5.394,5.394,0,0,0,3.431,1.177,8.193,8.193,0,0,0,5.4-1.739v1.739h4.2V36.739a4.338,4.338,0,0,0-2.1-4.165m-2.3,9.66a3.543,3.543,0,0,1-1.168,3.024,4.376,4.376,0,0,1-2.624.851,2.318,2.318,0,0,1-1.494-.479,2.409,2.409,0,0,1,.2-3.4,2.208,2.208,0,0,1,.194-.155,5.592,5.592,0,0,1,1.975-.57l2.1-.526.807-.445v1.7Z" transform="translate(-204.596 371.972)" fill="#e03224"/>
    <rect id="l" width="4.201" height="21.9" transform="translate(-131.668 399.18)" fill="#e03224"/>
    <path id="c" d="M76.3,33.637A6.487,6.487,0,0,1,79.9,34.724a7.188,7.188,0,0,1,2.375,2.788h4.4a10.828,10.828,0,0,0-3.795-5.778A10.055,10.055,0,0,0,76.3,29.472a9.938,9.938,0,0,0-7.628,3.188,10.487,10.487,0,0,0-3.186,7.721,10.621,10.621,0,0,0,3.186,7.76A10.32,10.32,0,0,0,76.3,51.293a10.474,10.474,0,0,0,6.581-2.228,10.941,10.941,0,0,0,3.795-5.776h-4.4A7.537,7.537,0,0,1,79.9,46.077,6.744,6.744,0,0,1,76.3,47.128a6.43,6.43,0,0,1-4.716-1.984,6.82,6.82,0,0,1,0-9.524A6.414,6.414,0,0,1,76.3,33.637" transform="translate(-220.481 369.707)" fill="#e03224"/>
  </g>
</svg>
