<svg xmlns="http://www.w3.org/2000/svg" width="118.025" height="42.609" viewBox="0 0 118.025 42.609">
  <g id="Grupo_549" data-name="Grupo 549" transform="translate(12394 19861.5)">
    <path id="Combined_Shape" data-name="Combined Shape" d="M87.984,42.609a11.056,11.056,0,0,1-8.057-3.5,11.2,11.2,0,0,1-3.442-8.275,11.435,11.435,0,0,1,3.442-8.354,11.079,11.079,0,0,1,8.02-3.456c.053,0,.106,0,.162,0h.125a11.4,11.4,0,0,1,8.15,3.453l.011-.021a11.621,11.621,0,0,1,3.392,8.352,11.8,11.8,0,0,1-11.677,11.8ZM83.8,26.415a6.008,6.008,0,0,0-1.838,4.418A6.2,6.2,0,0,0,83.8,35.2a6.04,6.04,0,0,0,8.662,0,6.268,6.268,0,0,0,.05-8.784,5.749,5.749,0,0,0-4.153-1.785c-.085,0-.17,0-.255.005s-.162-.005-.244-.005A5.53,5.53,0,0,0,83.8,26.415ZM59.246,42.5,53.671,42.5V40.2a11.1,11.1,0,0,1-7.208,2.3c-.034,0-.069,0-.1,0a7.228,7.228,0,0,1-4.493-1.57,5.989,5.989,0,0,1-1.88-4.79c-.05-2.848.955-4.843,3.066-6.095a13.5,13.5,0,0,1,4.859-1.48l4.31-.695a1.866,1.866,0,0,0,1.292-1.729,1.99,1.99,0,0,0-.971-1.886,4.921,4.921,0,0,0-2.283-.562c-.156,0-.316.008-.475.021-.09,0-.178-.005-.263-.005a3.229,3.229,0,0,0-2.7,1.09,3.555,3.555,0,0,0-.806,2.045h-5.6a8.792,8.792,0,0,1,1.615-4.9c1.483-1.968,4.047-2.965,7.622-2.965h.281c.172-.005.345-.008.515-.008a13.078,13.078,0,0,1,5.994,1.464c1.835.957,2.8,2.878,2.8,5.548V42.5ZM52.31,31.635l-2.8.705a7.45,7.45,0,0,0-2.639.753,3.217,3.217,0,0,0-.538,4.745,3.072,3.072,0,0,0,1.878.644c.037,0,.074,0,.111,0h.027a5.858,5.858,0,0,0,3.477-1.13c1.034-.766,1.559-2.124,1.559-4.037V31.051Zm-21.2,10.837V13.263h5.6V42.471Zm31.91-.013v-22.4l5.328.05v2.854a8.979,8.979,0,0,1,3.981-3.177l2.161-.591,1.448-.111.056,5.718-1.719-.114a5.451,5.451,0,0,0-3.071.973,5.252,5.252,0,0,0-1.936,2.154,7.963,7.963,0,0,0-.7,3.938V42.458Zm-58.769-4.3A14.162,14.162,0,0,1,0,27.813,13.975,13.975,0,0,1,4.248,17.52a13.25,13.25,0,0,1,10.174-4.257h.005A13.424,13.424,0,0,1,23.2,16.287a14.384,14.384,0,0,1,5.058,7.7H22.389a9.709,9.709,0,0,0-3.177-3.721A8.734,8.734,0,0,0,8.126,21.458a9.1,9.1,0,0,0,0,12.712,8.614,8.614,0,0,0,6.3,2.644,9.01,9.01,0,0,0,4.79-1.4,10.075,10.075,0,0,0,3.177-3.718H28.25A14.618,14.618,0,0,1,23.2,39.4a13.977,13.977,0,0,1-8.773,2.968l-.258,0A13.786,13.786,0,0,1,4.248,38.159ZM103.223,30.5v-5.01h14.8V30.5ZM97.2,16.334l13.51-13.526,3.554,3.554L100.746,19.891ZM86.271,14.5V0h5V14.5Z" transform="translate(-12394 -19861.5)" fill="#fff"/>
  </g>
</svg>
